# xmcd
#
# Track frame offsets:
#	150
#	12075
#	24520
#	34925
#	41137
#	49825
#	59482
#	67475
#	79825
#	89337
#	97537
#	108337
#	123435
#	132237
#	144162
#	154537
#	163012
#	173675
#	185025
#	196030
#
# Disc length: 2726 seconds
#
# Revision: 1
# Processed by: cddbd v1.5.2PL0 Copyright (c) Steve Scherf et al.
# Submitted via: audiograbber 1.83.01
#
DISCID=090aa414
DTITLE=Gene Autry - 20 Golden Pieces
DYEAR=1995
DGENRE=Country
TTITLE0=Dixie Cannonball
TTITLE1=My Old Kentucky Home
TTITLE2=Down In The Valley
TTITLE3=Cowboy Blues
TTITLE4=A Boy From Texas A Girl From Tennessee
TTITLE5=The West, A Nest And You
TTITLE6=Don't Bite The Hand That Feeds You
TTITLE7=Missouri Waltz
TTITLE8=There's No Back Door To Heaven
TTITLE9=Kentucky Baby
TTITLE10=You're The Only Good Thing
TTITLE11=When Day Is Done
TTITLE12=You Are My Sunshine
TTITLE13=I Hang My Head And Cry
TTITLE14=San Antinio Rose
TTITLE15=Goodbye Little Darling
TTITLE16=Trouble In Mind
TTITLE17=Lonely Rover
TTITLE18=You're The Star In My Blue Heaven
TTITLE19=Tweedle O Twill
EXTD=
EXTT0=
EXTT1=
EXTT2=
EXTT3=
EXTT4=
EXTT5=
EXTT6=
EXTT7=
EXTT8=
EXTT9=
EXTT10=
EXTT11=
EXTT12=
EXTT13=
EXTT14=
EXTT15=
EXTT16=
EXTT17=
EXTT18=
EXTT19=
PLAYORDER=
